<svg width="141" height="22" viewBox="0 0 141 22" fill="none" xmlns="http://www.w3.org/2000/svg">
<path d="M20.0539 12.2928L23.8177 2H26.6792L19.9766 19.7017H16.8315L10 2H12.9131L16.7542 12.2928C17.39 14.0166 17.94 15.6409 18.404 17.1657C18.6618 16.337 19.2118 14.7127 20.0539 12.2928Z" fill="#252525"/>
<path d="M37.1421 17.7873H37.8639V19.7017C37.4858 19.7514 37.0648 19.7762 36.6007 19.7762C35.7758 19.7762 35.1571 19.6354 34.7446 19.3536C34.3493 19.0553 34.1087 18.5912 34.0228 17.9613C33.1291 19.3204 31.6855 20 29.6919 20C28.2311 20 27.071 19.6685 26.2117 19.0055C25.3696 18.326 24.9485 17.3895 24.9485 16.1961C24.9485 13.8757 26.6156 12.5497 29.9497 12.2182L31.9089 12.0193C32.5964 11.9365 33.0948 11.7707 33.4041 11.5221C33.7306 11.2569 33.8939 10.884 33.8939 10.4033C33.8939 9.75691 33.6791 9.29282 33.2494 9.01105C32.837 8.71271 32.1409 8.56354 31.1613 8.56354C30.0958 8.56354 29.331 8.73757 28.867 9.08564C28.4029 9.41713 28.1366 10.0138 28.0678 10.8757H25.5157C25.7047 8.00829 27.5866 6.57459 31.1613 6.57459C34.6673 6.57459 36.4203 7.83426 36.4203 10.3536V17.1409C36.4203 17.5718 36.6609 17.7873 37.1421 17.7873ZM30.0786 18.0608C31.1785 18.0608 32.0894 17.7624 32.8112 17.1657C33.533 16.5691 33.8939 15.7238 33.8939 14.6298V13.2873C33.5674 13.5525 33.0174 13.7265 32.244 13.8094L30.3879 14.0083C29.3911 14.1243 28.6779 14.3564 28.2483 14.7044C27.8186 15.0359 27.6038 15.5083 27.6038 16.1215C27.6038 16.7348 27.81 17.2155 28.2225 17.5635C28.6521 17.895 29.2708 18.0608 30.0786 18.0608Z" fill="#252525"/>
<path d="M45.5741 6.57459C47.0349 6.57459 48.1778 6.97238 49.0028 7.76796C49.8277 8.54696 50.2402 9.65746 50.2402 11.0994V19.7017H47.6622V11.4475C47.6622 9.65746 46.7256 8.76243 44.8523 8.76243C43.993 8.76243 43.2196 9.07735 42.5322 9.70718C41.8447 10.3536 41.501 11.2735 41.501 12.4669V19.7017H38.9231V6.87293H41.3979V8.78729C42.4119 7.31216 43.8039 6.57459 45.5741 6.57459Z" fill="#252525"/>
<path d="M58.3401 6.87293V8.9116H55.659V16.6188C55.659 17 55.7707 17.2818 55.9942 17.4641C56.2348 17.6298 56.63 17.7127 57.18 17.7127H58.3401V19.7017C57.7729 19.7514 57.2487 19.7762 56.7675 19.7762C55.5129 19.7762 54.5849 19.5442 53.9834 19.0801C53.3819 18.616 53.0811 17.8702 53.0811 16.8425V8.9116H50.9414V6.87293H53.0811V3.19337H55.659V6.87293H58.3401Z" fill="#252525"/>
<path d="M66.3882 6.67403C66.7663 6.67403 67.0155 6.68232 67.1358 6.6989V9.06077H66.4913C65.168 9.06077 64.1454 9.37569 63.4236 10.0055C62.7018 10.6354 62.3409 11.547 62.3409 12.7403V19.7017H59.763V6.87293H62.2378V9.16022C63.0799 7.50276 64.4634 6.67403 66.3882 6.67403Z" fill="#252525"/>
<path d="M78.9477 17.7873H79.6695V19.7017C79.2915 19.7514 78.8704 19.7762 78.4064 19.7762C77.5814 19.7762 76.9627 19.6354 76.5503 19.3536C76.155 19.0553 75.9144 18.5912 75.8284 17.9613C74.9348 19.3204 73.4911 20 71.4975 20C70.0367 20 68.8766 19.6685 68.0173 19.0055C67.1752 18.326 66.7542 17.3895 66.7542 16.1961C66.7542 13.8757 68.4212 12.5497 71.7553 12.2182L73.7146 12.0193C74.402 11.9365 74.9004 11.7707 75.2097 11.5221C75.5363 11.2569 75.6995 10.884 75.6995 10.4033C75.6995 9.75691 75.4847 9.29282 75.0551 9.01105C74.6426 8.71271 73.9466 8.56354 72.9669 8.56354C71.9014 8.56354 71.1366 8.73757 70.6726 9.08564C70.2086 9.41713 69.9422 10.0138 69.8734 10.8757H67.3213C67.5103 8.00829 69.3922 6.57459 72.9669 6.57459C76.4729 6.57459 78.2259 7.83426 78.2259 10.3536V17.1409C78.2259 17.5718 78.4665 17.7873 78.9477 17.7873ZM71.8842 18.0608C72.9841 18.0608 73.895 17.7624 74.6168 17.1657C75.3386 16.5691 75.6995 15.7238 75.6995 14.6298V13.2873C75.373 13.5525 74.8231 13.7265 74.0497 13.8094L72.1936 14.0083C71.1968 14.1243 70.4836 14.3564 70.0539 14.7044C69.6242 15.0359 69.4094 15.5083 69.4094 16.1215C69.4094 16.7348 69.6157 17.2155 70.0281 17.5635C70.4578 17.895 71.0765 18.0608 71.8842 18.0608Z" fill="#252525"/>
<path d="M83.6418 2V17.3149H92.6387V19.7017H80.8834V2H83.6418Z" fill="#FF4400"/>
<path d="M105.251 17.7873H105.972V19.7017C105.594 19.7514 105.173 19.7762 104.709 19.7762C103.884 19.7762 103.266 19.6354 102.853 19.3536C102.458 19.0553 102.217 18.5912 102.131 17.9613C101.238 19.3204 99.794 20 97.8004 20C96.3396 20 95.1795 19.6685 94.3202 19.0055C93.4781 18.326 93.057 17.3895 93.057 16.1961C93.057 13.8757 94.7241 12.5497 98.0582 12.2182L100.017 12.0193C100.705 11.9365 101.203 11.7707 101.513 11.5221C101.839 11.2569 102.002 10.884 102.002 10.4033C102.002 9.75691 101.788 9.29282 101.358 9.01105C100.945 8.71271 100.249 8.56354 99.2698 8.56354C98.2043 8.56354 97.4395 8.73757 96.9755 9.08564C96.5114 9.41713 96.2451 10.0138 96.1763 10.8757H93.6242C93.8132 8.00829 95.6951 6.57459 99.2698 6.57459C102.776 6.57459 104.529 7.83426 104.529 10.3536V17.1409C104.529 17.5718 104.769 17.7873 105.251 17.7873ZM98.1871 18.0608C99.287 18.0608 100.198 17.7624 100.92 17.1657C101.642 16.5691 102.002 15.7238 102.002 14.6298V13.2873C101.676 13.5525 101.126 13.7265 100.353 13.8094L98.4964 14.0083C97.4996 14.1243 96.7864 14.3564 96.3568 14.7044C95.9271 15.0359 95.7123 15.5083 95.7123 16.1215C95.7123 16.7348 95.9185 17.2155 96.331 17.5635C96.7606 17.895 97.3793 18.0608 98.1871 18.0608Z" fill="#FF4400"/>
<path d="M113.84 6.57459C115.696 6.57459 117.174 7.17956 118.274 8.3895C119.374 9.59945 119.924 11.232 119.924 13.2873C119.924 15.326 119.374 16.9503 118.274 18.1602C117.157 19.3867 115.679 20 113.84 20C111.88 20 110.402 19.2541 109.406 17.7624V19.7017H106.931V2H109.509V8.66298C110.506 7.27072 111.949 6.57459 113.84 6.57459ZM110.514 16.6436C111.202 17.4558 112.147 17.8619 113.35 17.8619C114.553 17.8619 115.507 17.4475 116.211 16.6188C116.899 15.8066 117.243 14.663 117.243 13.1878C117.243 11.7624 116.899 10.6602 116.211 9.88122C115.524 9.10221 114.57 8.71271 113.35 8.71271C112.164 8.71271 111.219 9.1105 110.514 9.90608C109.81 10.7348 109.457 11.8619 109.457 13.2873C109.457 14.7127 109.81 15.8315 110.514 16.6436Z" fill="#FF4400"/>
<path d="M126.05 17.663H131V19.7017H120.018V17.9613L125.741 10.9254C126.36 10.1464 126.927 9.46685 127.442 8.88674C127.03 8.90332 126.102 8.9116 124.658 8.9116H120.224V6.87293H130.691V8.61326L124.968 15.6492C124.349 16.4282 123.782 17.1077 123.266 17.6878C123.679 17.6713 124.607 17.663 126.05 17.663Z" fill="#FF4400"/>
</svg>
